<?xml version="1.0" standalone="no"?>
<!DOCTYPE svg PUBLIC "-//W3C//DTD SVG 20010904//EN"
 "http://www.w3.org/TR/2001/REC-SVG-20010904/DTD/svg10.dtd">
<svg version="1.0" xmlns="http://www.w3.org/2000/svg"
 width="256.000000pt" height="268.000000pt" viewBox="0 0 256.000000 268.000000"
 preserveAspectRatio="xMidYMid meet">
<metadata>
Created by potrace 1.16, written by Peter Selinger 2001-2019
</metadata>
<g transform="translate(0.000000,268.000000) scale(0.100000,-0.100000)"
fill="#000000" stroke="none">
<path d="M1130 2352 c-30 -15 -69 -37 -85 -49 -41 -29 -164 -155 -223 -228
-110 -137 -160 -188 -292 -295 -123 -100 -203 -187 -242 -263 -39 -77 -51
-201 -25 -266 43 -106 113 -189 282 -330 145 -121 202 -178 270 -267 85 -111
213 -235 282 -272 116 -61 258 -61 362 1 80 48 141 106 256 246 138 168 166
197 259 272 117 94 183 157 230 219 67 88 81 130 81 240 -1 89 -3 99 -37 165
-38 74 -141 182 -282 295 -37 30 -122 118 -189 195 -178 207 -260 284 -342
325 -62 31 -80 35 -160 37 -81 3 -95 0 -145 -25z m277 -72 c45 -22 87 -58 157
-131 53 -55 108 -118 122 -141 35 -55 195 -212 286 -281 227 -171 300 -337
219 -501 -33 -67 -121 -159 -256 -267 -94 -76 -215 -203 -339 -357 -98 -122
-217 -191 -327 -192 -124 0 -220 69 -409 295 -122 145 -160 184 -255 255 -119
90 -228 204 -260 271 -30 65 -34 157 -8 221 26 68 87 151 145 199 29 24 58 48
64 54 165 144 218 195 281 270 103 122 241 263 278 283 68 38 112 51 176 51
54 1 77 -4 126 -29z"/>
</g>
</svg>
